<svg xmlns="http://www.w3.org/2000/svg" version="1.1" xmlns:xlink="http://www.w3.org/1999/xlink" xmlns:svgjs="http://svgjs.dev/svgjs" width="1000" height="1000"><style>
    #light-icon {
      display: inline;
    }
    #dark-icon {
      display: none;
    }

    @media (prefers-color-scheme: dark) {
      #light-icon {
        display: none;
      }
      #dark-icon {
        display: inline;
      }
    }
  </style><g id="light-icon"><svg xmlns="http://www.w3.org/2000/svg" version="1.1" xmlns:xlink="http://www.w3.org/1999/xlink" xmlns:svgjs="http://svgjs.dev/svgjs" width="1000" height="1000"><g><g transform="matrix(1.2626262626262625,0,0,1.2626262626262625,5.684341886080802e-14,113.63636363636368)"><svg xmlns="http://www.w3.org/2000/svg" version="1.1" xmlns:xlink="http://www.w3.org/1999/xlink" xmlns:svgjs="http://svgjs.dev/svgjs" width="792" height="612"><svg version="1.1" xmlns="http://www.w3.org/2000/svg" xmlns:xlink="http://www.w3.org/1999/xlink" x="0px" y="0px" viewBox="0 0 792 612" style="enable-background:new 0 0 792 612;" xml:space="preserve">
<style type="text/css">
	.st0{fill:#545454;stroke:#545454;stroke-width:4;stroke-miterlimit:10;}
	.st1{fill:#5EACEB;}
	.st2{fill:#B880E1;stroke:#B880E1;stroke-miterlimit:10;}
</style>
<g id="Capa_2">
	<g>
		<g>
			<path class="st0" d="M68.7,486V394h12.9l32.6,64.3l32.8-64.3h13.1V486H149v-72.4l-30.5,59.5h-8.3l-30.4-59.2V486H68.7z"></path>
			<path class="st0" d="M216.4,487.6c-6.3,0-11.8-1.4-16.8-4.3c-4.9-2.8-8.8-6.9-11.6-12.1c-2.8-5.2-4.2-11.3-4.2-18.2
				c0-7.1,1.4-13.3,4.3-18.5c2.9-5.2,6.8-9.3,11.8-12.1c5-2.8,10.6-4.3,16.8-4.3c6.3,0,11.8,1.4,16.7,4.3c4.9,2.9,8.8,6.9,11.6,12
				c2.9,5.2,4.3,11.3,4.3,18.4c0,7-1.5,13.1-4.4,18.4c-2.9,5.2-6.8,9.3-11.8,12.1C228.2,486.2,222.6,487.6,216.4,487.6z
				 M216.4,478.1c3.8,0,7.3-0.9,10.6-2.8c3.3-1.9,5.9-4.7,7.9-8.5c2-3.8,3-8.4,3-13.9c0-5.6-1-10.3-3-14c-2-3.7-4.6-6.5-7.8-8.4
				c-3.2-1.9-6.7-2.8-10.5-2.8c-3.8,0-7.3,0.9-10.6,2.8c-3.3,1.9-5.9,4.7-7.9,8.4c-2,3.7-3,8.4-3,14c0,5.5,1,10.2,3,13.9
				c2,3.8,4.6,6.6,7.8,8.5C209.1,477.2,212.6,478.1,216.4,478.1z"></path>
			<path class="st0" d="M265.6,486l22.6-33.2l-22.6-33.2h12.2l18,27.1l18.2-27.1h11.9l-22.6,33.2l22.6,33.2H314l-18.2-27.2l-18,27.2
				H265.6z"></path>
			<path class="st0" d="M351.8,405.7c-2.2,0-4-0.7-5.5-2.2c-1.5-1.4-2.2-3.3-2.2-5.5c0-2.2,0.7-4,2.2-5.3c1.5-1.4,3.3-2,5.5-2
				c2.1,0,3.9,0.7,5.4,2c1.5,1.4,2.2,3.1,2.2,5.3c0,2.2-0.7,4-2.2,5.5C355.7,404.9,353.9,405.7,351.8,405.7z M346.2,486v-66.3h11.1
				V486H346.2z"></path>
			<path class="st0" d="M413.4,487.6c-6.3,0-11.8-1.4-16.6-4.3c-4.8-2.9-8.6-6.9-11.3-12.2c-2.7-5.2-4.1-11.3-4.1-18.2
				c0-7,1.3-13.1,4-18.3c2.7-5.2,6.5-9.2,11.4-12.1c4.9-2.9,10.5-4.3,16.8-4.3c6.5,0,12,1.4,16.6,4.3c4.5,2.9,8,6.7,10.4,11.4
				c2.4,4.7,3.6,9.8,3.6,15.5c0,0.9,0,1.8,0,2.8c0,1,0,2.1-0.1,3.3h-54.4v-8.6h43.7c-0.3-6.1-2.3-10.8-6-14.2
				c-3.7-3.4-8.4-5.1-14.1-5.1c-3.8,0-7.3,0.9-10.5,2.6c-3.2,1.7-5.8,4.2-7.7,7.5c-1.9,3.3-2.9,7.4-2.9,12.3v3.7c0,5.4,1,10,3,13.7
				c2,3.7,4.6,6.4,7.8,8.3c3.2,1.8,6.7,2.8,10.4,2.8c4.7,0,8.5-1,11.6-3.1c3-2.1,5.2-4.8,6.5-8.4h11c-1.1,3.9-2.9,7.5-5.5,10.7
				c-2.6,3.2-5.9,5.6-9.8,7.4C423.2,486.7,418.6,487.6,413.4,487.6z"></path>
			<path class="st0" d="M467.3,486V394h11.1v83.3h43.1v8.8H467.3z"></path>
			<path class="st0" d="M550.3,405.7c-2.2,0-4-0.7-5.5-2.2c-1.5-1.4-2.2-3.3-2.2-5.5c0-2.2,0.7-4,2.2-5.3c1.5-1.4,3.3-2,5.5-2
				c2.1,0,3.9,0.7,5.4,2c1.5,1.4,2.2,3.1,2.2,5.3c0,2.2-0.7,4-2.2,5.5C554.2,404.9,552.4,405.7,550.3,405.7z M544.7,486v-66.3h11.1
				V486H544.7z"></path>
			<path class="st0" d="M582.7,486v-66.3h10l0.5,11.6c2.1-4.1,5.1-7.3,9-9.7c3.9-2.3,8.4-3.5,13.4-3.5c5.2,0,9.7,1,13.5,3.1
				c3.8,2.1,6.7,5.2,8.8,9.3c2.1,4.2,3.2,9.5,3.2,15.9V486h-11.1v-38.4c0-6.7-1.5-11.7-4.4-15c-3-3.3-7.1-5-12.5-5
				c-3.7,0-7,0.9-9.9,2.7c-2.9,1.8-5.2,4.4-6.9,7.8c-1.7,3.4-2.6,7.6-2.6,12.6V486H582.7z"></path>
			<path class="st0" d="M665.9,486v-94.7H677V486H665.9z M706.9,486l-31.7-36.3l28.9-30h13.6l-33.1,33.9l0.1-7.9L721,486H706.9z"></path>
		</g>
	</g>
</g>
<g id="Capa_1">
	<g>
		<g>
			<path class="st1" d="M397.4,142.6c-63.8-58.5-122.4-98.8-225,100.9C128.4,331.2,218,409.1,289,343l-11.5-38.4
				c-30.3,46-66.4,33.9-79.1,6.1c-6.7-14.5-5.8-31.7,1.7-45.8C271.3,131.4,306,65.2,396.5,199.7"></path>
			<path class="st1" d="M397.4,142.6c-8.4-7.6-16.8-15.1-25.7-22c-8.9-6.9-18.3-13.2-28.5-18c-10.2-4.7-21.3-7.7-32.5-7.2
				c-11.2,0.4-22.1,4-31.8,9.6c-9.8,5.5-18.5,12.7-26.5,20.6c-2,1.9-3.9,4-5.9,6c-1.9,2.1-3.8,4.1-5.6,6.3
				c-3.7,4.2-7.2,8.6-10.7,13.1c-13.7,17.9-25.7,37-36.9,56.6c-5.6,9.8-10.9,19.7-16.2,29.7c-1.3,2.5-2.6,5-3.9,7.5
				c-0.6,1.3-1.2,2.5-1.8,3.8l-1.7,3.8c-2.1,5.2-3.8,10.5-5.1,15.9c-2.6,10.8-3.3,22.1-1.8,33.1c1.5,11,5.1,21.7,11,31.2
				c2.9,4.7,6.3,9.1,10.2,13.1c3.9,3.9,8.2,7.5,12.9,10.4c9.3,5.9,20.2,9.4,31.2,10.1c5.5,0.3,11.1,0,16.5-1
				c5.4-1,10.7-2.7,15.8-4.8c10.2-4.3,19.5-10.8,27.6-18.4l-0.4,1.5L276.2,305l2.6,0.4c-5.2,7.9-11.3,15.3-18.9,21.2
				c-3.8,2.9-7.9,5.5-12.4,7.3c-4.5,1.8-9.3,2.9-14.2,2.9c-4.9,0-9.7-1-14.2-3c-4.5-2-8.5-4.8-11.9-8.2
				c-6.9-6.8-11.5-15.7-13.4-25.1c-1-4.7-1.3-9.5-1-14.3c0.3-4.8,1.2-9.5,2.8-14.1c0.4-1.1,0.8-2.3,1.3-3.4l0.7-1.7l0.8-1.6
				c1.1-2.2,2.2-4.2,3.3-6.2l6.7-12.4c8.9-16.5,17.8-32.9,27.4-49.1c4.8-8.1,9.7-16.1,14.9-23.9c5.2-7.8,10.7-15.4,16.9-22.6
				c6.1-7.1,12.9-13.8,21-18.9c4-2.5,8.4-4.6,13-5.8c4.6-1.3,9.4-1.7,14.2-1.1c4.7,0.5,9.3,1.8,13.7,3.7c4.3,1.9,8.4,4.3,12.3,7
				c7.7,5.4,14.5,11.9,20.9,18.8c12.7,13.8,23.7,29,34.1,44.6c-10.6-15.4-21.7-30.5-34.6-44.1c-6.4-6.8-13.3-13.1-21-18.4
				c-3.8-2.6-7.9-5-12.1-6.8c-4.3-1.8-8.8-3.1-13.3-3.5c-4.6-0.4-9.2,0-13.7,1.3c-4.4,1.2-8.6,3.3-12.5,5.7
				c-7.8,5-14.4,11.6-20.5,18.7c-6,7.1-11.5,14.7-16.6,22.5c-5.1,7.8-10,15.8-14.7,23.9c-9.4,16.2-18.2,32.7-27,49.2l-6.6,12.4
				c-1.1,2.1-2.2,4.1-3.2,6.2l-0.8,1.5l-0.7,1.6c-0.5,1-0.8,2.1-1.2,3.2c-1.5,4.3-2.4,8.8-2.7,13.4c-0.3,4.6,0,9.1,0.9,13.6
				c1.9,8.9,6.3,17.3,12.7,23.7c3.2,3.2,7,5.8,11.1,7.6c4.1,1.8,8.6,2.8,13.1,2.7c4.5,0,9-1,13.2-2.7c4.2-1.7,8.1-4.1,11.7-6.9
				c7.2-5.7,13.1-12.9,18.2-20.6l1.7-2.6l0.9,2.9l11.5,38.4l0.3,0.9L290,344c-8.4,7.8-17.9,14.5-28.5,19c-5.3,2.2-10.8,3.9-16.5,5
				c-5.7,1-11.5,1.4-17.2,1c-11.5-0.8-22.8-4.4-32.5-10.6c-4.9-3-9.3-6.8-13.4-10.8c-4-4.1-7.6-8.7-10.5-13.6
				c-6-9.8-9.8-20.9-11.3-32.3c-1.5-11.4-0.7-23,2-34.1c1.3-5.6,3.1-11,5.3-16.3l1.7-3.9c0.6-1.3,1.2-2.6,1.8-3.9
				c1.3-2.5,2.6-5,3.9-7.5c5.2-10,10.7-19.9,16.4-29.7c11.3-19.6,23.5-38.7,37.4-56.6c3.5-4.4,7.1-8.8,10.8-13.1
				c1.8-2.1,3.8-4.2,5.7-6.3c2-2,3.9-4.1,6-6c8.1-7.9,17-15.1,27-20.7c5-2.8,10.2-5.1,15.7-6.7c5.5-1.6,11.1-2.6,16.8-2.7
				c11.4-0.4,22.7,2.8,32.9,7.6c10.2,4.9,19.6,11.4,28.4,18.4C380.8,127.3,389.1,134.9,397.4,142.6z"></path>
		</g>
		<g>
			<path class="st1" d="M396.5,199.7c90.4-134.4,124.2-68.1,195.4,65.4c7.5,14,8.4,31.2,1.7,45.8c-12.7,27.8-48.9,39.9-79.1-6.1
				L503,343.1c71,66.2,160.6-11.8,116.6-99.5C517,43.9,459.2,84.1,395.4,142.6"></path>
			<path class="st1" d="M396.5,199.7c10.4-15.5,21.3-30.8,34-44.5c6.4-6.9,13.2-13.4,20.9-18.8c3.8-2.7,7.9-5.1,12.2-7
				c4.3-1.9,8.9-3.3,13.6-3.7c4.7-0.5,9.6-0.1,14.1,1.2c4.6,1.3,8.9,3.4,12.9,5.9c8,5.1,14.7,11.9,20.8,19
				c6.1,7.2,11.6,14.8,16.7,22.6c5.2,7.8,10.1,15.8,14.8,23.9c9.5,16.2,18.4,32.6,27.2,49l6.6,12.3c1.1,2.1,2.2,4.1,3.3,6.2
				c1.1,2.1,2,4.4,2.8,6.6c1.6,4.5,2.5,9.3,2.8,14c0.3,4.8,0,9.6-1,14.3c-2,9.4-6.6,18.2-13.5,25c-3.4,3.4-7.5,6.2-11.9,8.1
				c-4.4,1.9-9.3,3-14.2,2.9c-4.9,0-9.7-1.1-14.2-2.9c-4.5-1.8-8.6-4.3-12.4-7.3c-7.5-5.9-13.6-13.3-18.9-21.2l2.6-0.4l-11.4,38.4
				L504,342c8.2,7.6,17.4,14,27.6,18.4c5.1,2.2,10.4,3.8,15.8,4.8c5.4,1,11,1.3,16.5,1c11-0.7,21.8-4.2,31.2-10.1
				c4.7-2.9,9-6.4,12.9-10.4c3.9-4,7.3-8.3,10.2-13c2.9-4.7,5.3-9.7,7.1-15c1.8-5.2,3.1-10.6,3.9-16.1c1.5-11,0.8-22.3-1.8-33.1
				c-1.3-5.4-3-10.7-5.1-15.9c-0.5-1.3-1.1-2.6-1.6-3.8c-0.6-1.3-1.2-2.5-1.8-3.8c-1.2-2.5-2.6-5-3.9-7.5
				c-5.2-10-10.6-19.9-16.1-29.7c-11.1-19.6-23.1-38.7-36.7-56.6c-3.4-4.5-6.9-8.8-10.6-13.1c-3.7-4.3-7.5-8.4-11.5-12.3
				c-7.9-7.9-16.7-15.1-26.4-20.7c-9.6-5.6-20.5-9.3-31.7-9.8c-11.2-0.5-22.3,2.4-32.5,7.1c-10.2,4.7-19.6,11.1-28.5,18
				c-8.9,6.9-17.3,14.4-25.7,22c8.3-7.7,16.6-15.2,25.5-22.3c8.8-7,18.2-13.5,28.4-18.4c10.2-4.9,21.4-8,32.9-7.6
				c11.4,0.3,22.6,4,32.4,9.6c9.9,5.6,18.8,12.9,26.8,20.8c4.1,4,7.9,8.1,11.6,12.4c3.7,4.2,7.3,8.6,10.8,13.1
				c13.8,17.9,26,37,37.2,56.6c5.6,9.8,11.1,19.7,16.3,29.7c1.3,2.5,2.6,5,3.9,7.5c0.6,1.3,1.3,2.6,1.8,3.9c0.6,1.3,1.2,2.6,1.7,3.9
				c2.2,5.3,3.9,10.7,5.2,16.3c2.6,11.1,3.4,22.7,1.9,34.1c-0.8,5.7-2.1,11.3-4,16.7c-1.9,5.4-4.4,10.6-7.4,15.5
				c-3,4.9-6.6,9.4-10.6,13.6c-4,4.1-8.5,7.8-13.4,10.8c-9.7,6.2-21,9.8-32.5,10.6c-5.7,0.3-11.5,0-17.2-1c-5.7-1.1-11.2-2.8-16.5-5
				c-10.6-4.5-20.1-11.2-28.4-18.9l-0.7-0.6l0.3-0.9l11.5-38.4l0.9-2.9l1.7,2.6c5.1,7.7,11,14.9,18.2,20.6c3.6,2.8,7.5,5.2,11.7,6.9
				c4.2,1.7,8.7,2.7,13.1,2.7c4.5,0,9-0.9,13.1-2.7c4.1-1.8,7.9-4.4,11.1-7.6c6.5-6.3,10.9-14.7,12.8-23.6c1-4.4,1.3-9,1-13.6
				c-0.3-4.5-1.1-9.1-2.6-13.4c-0.8-2.1-1.6-4.3-2.6-6.3c-1-2-2.2-4.1-3.2-6.2l-6.6-12.4c-8.8-16.5-17.6-33-26.9-49.2
				c-4.7-8.1-9.5-16.1-14.6-23.9c-5.1-7.8-10.5-15.4-16.5-22.5c-6-7.1-12.6-13.8-20.3-18.8c-3.9-2.5-8-4.6-12.4-5.8
				c-4.4-1.3-9-1.8-13.6-1.3c-4.6,0.4-9.1,1.7-13.3,3.5c-4.3,1.8-8.3,4.2-12.1,6.8c-7.7,5.3-14.5,11.7-20.9,18.4
				C418.1,169.2,407,184.3,396.5,199.7z"></path>
		</g>
		<path class="st2" d="M410.5,289.1h23.8c1.3-39.7-16.2-61.6-42.3-63.1l-40.6-0.2c-9.8,0-19.4,2.5-27.7,7.8
			c-38.9,24.8-26.3,91.2,24.7,95.9l0.2-26.3c-20.6-0.8-26.7-18.4-22.6-33.2c3.3-11.6,13.7-19.6,25.7-20.2
			C401.6,247.4,412.8,251.4,410.5,289.1z"></path>
		<path class="st2" d="M386.7,265l-23.8-0.1c-1.4,39.7,15.9,61.6,42.1,63.2l40.6,0.4c9.8,0.1,19.4-2.4,27.7-7.7
			c39-24.7,26.6-91.1-24.3-96l-0.3,26.3c20.6,0.9,26.7,18.5,22.4,33.2c-3.3,11.5-13.8,19.6-25.8,20.1
			C395.4,306.8,384.3,302.7,386.7,265z"></path>
	</g>
</g>
</svg></svg></g></g></svg></g><g id="dark-icon"><svg xmlns="http://www.w3.org/2000/svg" version="1.1" xmlns:xlink="http://www.w3.org/1999/xlink" xmlns:svgjs="http://svgjs.dev/svgjs" width="1000" height="1000"><g clip-path="url(#SvgjsClipPath1034)"><rect width="1000" height="1000" fill="#ffffff"></rect><g transform="matrix(0.8838383838383839,0,0,0.8838383838383839,150,229.54545454545456)"><svg xmlns="http://www.w3.org/2000/svg" version="1.1" xmlns:xlink="http://www.w3.org/1999/xlink" xmlns:svgjs="http://svgjs.dev/svgjs" width="792" height="612"><svg version="1.1" xmlns="http://www.w3.org/2000/svg" xmlns:xlink="http://www.w3.org/1999/xlink" x="0px" y="0px" viewBox="0 0 792 612" style="enable-background:new 0 0 792 612;" xml:space="preserve">
<style type="text/css">
	.st0{fill:#545454;stroke:#545454;stroke-width:4;stroke-miterlimit:10;}
	.st1{fill:#5EACEB;}
	.st2{fill:#B880E1;stroke:#B880E1;stroke-miterlimit:10;}
</style>
<g id="Capa_2">
	<g>
		<g>
			<path class="st0" d="M68.7,486V394h12.9l32.6,64.3l32.8-64.3h13.1V486H149v-72.4l-30.5,59.5h-8.3l-30.4-59.2V486H68.7z"></path>
			<path class="st0" d="M216.4,487.6c-6.3,0-11.8-1.4-16.8-4.3c-4.9-2.8-8.8-6.9-11.6-12.1c-2.8-5.2-4.2-11.3-4.2-18.2
				c0-7.1,1.4-13.3,4.3-18.5c2.9-5.2,6.8-9.3,11.8-12.1c5-2.8,10.6-4.3,16.8-4.3c6.3,0,11.8,1.4,16.7,4.3c4.9,2.9,8.8,6.9,11.6,12
				c2.9,5.2,4.3,11.3,4.3,18.4c0,7-1.5,13.1-4.4,18.4c-2.9,5.2-6.8,9.3-11.8,12.1C228.2,486.2,222.6,487.6,216.4,487.6z
				 M216.4,478.1c3.8,0,7.3-0.9,10.6-2.8c3.3-1.9,5.9-4.7,7.9-8.5c2-3.8,3-8.4,3-13.9c0-5.6-1-10.3-3-14c-2-3.7-4.6-6.5-7.8-8.4
				c-3.2-1.9-6.7-2.8-10.5-2.8c-3.8,0-7.3,0.9-10.6,2.8c-3.3,1.9-5.9,4.7-7.9,8.4c-2,3.7-3,8.4-3,14c0,5.5,1,10.2,3,13.9
				c2,3.8,4.6,6.6,7.8,8.5C209.1,477.2,212.6,478.1,216.4,478.1z"></path>
			<path class="st0" d="M265.6,486l22.6-33.2l-22.6-33.2h12.2l18,27.1l18.2-27.1h11.9l-22.6,33.2l22.6,33.2H314l-18.2-27.2l-18,27.2
				H265.6z"></path>
			<path class="st0" d="M351.8,405.7c-2.2,0-4-0.7-5.5-2.2c-1.5-1.4-2.2-3.3-2.2-5.5c0-2.2,0.7-4,2.2-5.3c1.5-1.4,3.3-2,5.5-2
				c2.1,0,3.9,0.7,5.4,2c1.5,1.4,2.2,3.1,2.2,5.3c0,2.2-0.7,4-2.2,5.5C355.7,404.9,353.9,405.7,351.8,405.7z M346.2,486v-66.3h11.1
				V486H346.2z"></path>
			<path class="st0" d="M413.4,487.6c-6.3,0-11.8-1.4-16.6-4.3c-4.8-2.9-8.6-6.9-11.3-12.2c-2.7-5.2-4.1-11.3-4.1-18.2
				c0-7,1.3-13.1,4-18.3c2.7-5.2,6.5-9.2,11.4-12.1c4.9-2.9,10.5-4.3,16.8-4.3c6.5,0,12,1.4,16.6,4.3c4.5,2.9,8,6.7,10.4,11.4
				c2.4,4.7,3.6,9.8,3.6,15.5c0,0.9,0,1.8,0,2.8c0,1,0,2.1-0.1,3.3h-54.4v-8.6h43.7c-0.3-6.1-2.3-10.8-6-14.2
				c-3.7-3.4-8.4-5.1-14.1-5.1c-3.8,0-7.3,0.9-10.5,2.6c-3.2,1.7-5.8,4.2-7.7,7.5c-1.9,3.3-2.9,7.4-2.9,12.3v3.7c0,5.4,1,10,3,13.7
				c2,3.7,4.6,6.4,7.8,8.3c3.2,1.8,6.7,2.8,10.4,2.8c4.7,0,8.5-1,11.6-3.1c3-2.1,5.2-4.8,6.5-8.4h11c-1.1,3.9-2.9,7.5-5.5,10.7
				c-2.6,3.2-5.9,5.6-9.8,7.4C423.2,486.7,418.6,487.6,413.4,487.6z"></path>
			<path class="st0" d="M467.3,486V394h11.1v83.3h43.1v8.8H467.3z"></path>
			<path class="st0" d="M550.3,405.7c-2.2,0-4-0.7-5.5-2.2c-1.5-1.4-2.2-3.3-2.2-5.5c0-2.2,0.7-4,2.2-5.3c1.5-1.4,3.3-2,5.5-2
				c2.1,0,3.9,0.7,5.4,2c1.5,1.4,2.2,3.1,2.2,5.3c0,2.2-0.7,4-2.2,5.5C554.2,404.9,552.4,405.7,550.3,405.7z M544.7,486v-66.3h11.1
				V486H544.7z"></path>
			<path class="st0" d="M582.7,486v-66.3h10l0.5,11.6c2.1-4.1,5.1-7.3,9-9.7c3.9-2.3,8.4-3.5,13.4-3.5c5.2,0,9.7,1,13.5,3.1
				c3.8,2.1,6.7,5.2,8.8,9.3c2.1,4.2,3.2,9.5,3.2,15.9V486h-11.1v-38.4c0-6.7-1.5-11.7-4.4-15c-3-3.3-7.1-5-12.5-5
				c-3.7,0-7,0.9-9.9,2.7c-2.9,1.8-5.2,4.4-6.9,7.8c-1.7,3.4-2.6,7.6-2.6,12.6V486H582.7z"></path>
			<path class="st0" d="M665.9,486v-94.7H677V486H665.9z M706.9,486l-31.7-36.3l28.9-30h13.6l-33.1,33.9l0.1-7.9L721,486H706.9z"></path>
		</g>
	</g>
</g>
<g id="Capa_1">
	<g>
		<g>
			<path class="st1" d="M397.4,142.6c-63.8-58.5-122.4-98.8-225,100.9C128.4,331.2,218,409.1,289,343l-11.5-38.4
				c-30.3,46-66.4,33.9-79.1,6.1c-6.7-14.5-5.8-31.7,1.7-45.8C271.3,131.4,306,65.2,396.5,199.7"></path>
			<path class="st1" d="M397.4,142.6c-8.4-7.6-16.8-15.1-25.7-22c-8.9-6.9-18.3-13.2-28.5-18c-10.2-4.7-21.3-7.7-32.5-7.2
				c-11.2,0.4-22.1,4-31.8,9.6c-9.8,5.5-18.5,12.7-26.5,20.6c-2,1.9-3.9,4-5.9,6c-1.9,2.1-3.8,4.1-5.6,6.3
				c-3.7,4.2-7.2,8.6-10.7,13.1c-13.7,17.9-25.7,37-36.9,56.6c-5.6,9.8-10.9,19.7-16.2,29.7c-1.3,2.5-2.6,5-3.9,7.5
				c-0.6,1.3-1.2,2.5-1.8,3.8l-1.7,3.8c-2.1,5.2-3.8,10.5-5.1,15.9c-2.6,10.8-3.3,22.1-1.8,33.1c1.5,11,5.1,21.7,11,31.2
				c2.9,4.7,6.3,9.1,10.2,13.1c3.9,3.9,8.2,7.5,12.9,10.4c9.3,5.9,20.2,9.4,31.2,10.1c5.5,0.3,11.1,0,16.5-1
				c5.4-1,10.7-2.7,15.8-4.8c10.2-4.3,19.5-10.8,27.6-18.4l-0.4,1.5L276.2,305l2.6,0.4c-5.2,7.9-11.3,15.3-18.9,21.2
				c-3.8,2.9-7.9,5.5-12.4,7.3c-4.5,1.8-9.3,2.9-14.2,2.9c-4.9,0-9.7-1-14.2-3c-4.5-2-8.5-4.8-11.9-8.2
				c-6.9-6.8-11.5-15.7-13.4-25.1c-1-4.7-1.3-9.5-1-14.3c0.3-4.8,1.2-9.5,2.8-14.1c0.4-1.1,0.8-2.3,1.3-3.4l0.7-1.7l0.8-1.6
				c1.1-2.2,2.2-4.2,3.3-6.2l6.7-12.4c8.9-16.5,17.8-32.9,27.4-49.1c4.8-8.1,9.7-16.1,14.9-23.9c5.2-7.8,10.7-15.4,16.9-22.6
				c6.1-7.1,12.9-13.8,21-18.9c4-2.5,8.4-4.6,13-5.8c4.6-1.3,9.4-1.7,14.2-1.1c4.7,0.5,9.3,1.8,13.7,3.7c4.3,1.9,8.4,4.3,12.3,7
				c7.7,5.4,14.5,11.9,20.9,18.8c12.7,13.8,23.7,29,34.1,44.6c-10.6-15.4-21.7-30.5-34.6-44.1c-6.4-6.8-13.3-13.1-21-18.4
				c-3.8-2.6-7.9-5-12.1-6.8c-4.3-1.8-8.8-3.1-13.3-3.5c-4.6-0.4-9.2,0-13.7,1.3c-4.4,1.2-8.6,3.3-12.5,5.7
				c-7.8,5-14.4,11.6-20.5,18.7c-6,7.1-11.5,14.7-16.6,22.5c-5.1,7.8-10,15.8-14.7,23.9c-9.4,16.2-18.2,32.7-27,49.2l-6.6,12.4
				c-1.1,2.1-2.2,4.1-3.2,6.2l-0.8,1.5l-0.7,1.6c-0.5,1-0.8,2.1-1.2,3.2c-1.5,4.3-2.4,8.8-2.7,13.4c-0.3,4.6,0,9.1,0.9,13.6
				c1.9,8.9,6.3,17.3,12.7,23.7c3.2,3.2,7,5.8,11.1,7.6c4.1,1.8,8.6,2.8,13.1,2.7c4.5,0,9-1,13.2-2.7c4.2-1.7,8.1-4.1,11.7-6.9
				c7.2-5.7,13.1-12.9,18.2-20.6l1.7-2.6l0.9,2.9l11.5,38.4l0.3,0.9L290,344c-8.4,7.8-17.9,14.5-28.5,19c-5.3,2.2-10.8,3.9-16.5,5
				c-5.7,1-11.5,1.4-17.2,1c-11.5-0.8-22.8-4.4-32.5-10.6c-4.9-3-9.3-6.8-13.4-10.8c-4-4.1-7.6-8.7-10.5-13.6
				c-6-9.8-9.8-20.9-11.3-32.3c-1.5-11.4-0.7-23,2-34.1c1.3-5.6,3.1-11,5.3-16.3l1.7-3.9c0.6-1.3,1.2-2.6,1.8-3.9
				c1.3-2.5,2.6-5,3.9-7.5c5.2-10,10.7-19.9,16.4-29.7c11.3-19.6,23.5-38.7,37.4-56.6c3.5-4.4,7.1-8.8,10.8-13.1
				c1.8-2.1,3.8-4.2,5.7-6.3c2-2,3.9-4.1,6-6c8.1-7.9,17-15.1,27-20.7c5-2.8,10.2-5.1,15.7-6.7c5.5-1.6,11.1-2.6,16.8-2.7
				c11.4-0.4,22.7,2.8,32.9,7.6c10.2,4.9,19.6,11.4,28.4,18.4C380.8,127.3,389.1,134.9,397.4,142.6z"></path>
		</g>
		<g>
			<path class="st1" d="M396.5,199.7c90.4-134.4,124.2-68.1,195.4,65.4c7.5,14,8.4,31.2,1.7,45.8c-12.7,27.8-48.9,39.9-79.1-6.1
				L503,343.1c71,66.2,160.6-11.8,116.6-99.5C517,43.9,459.2,84.1,395.4,142.6"></path>
			<path class="st1" d="M396.5,199.7c10.4-15.5,21.3-30.8,34-44.5c6.4-6.9,13.2-13.4,20.9-18.8c3.8-2.7,7.9-5.1,12.2-7
				c4.3-1.9,8.9-3.3,13.6-3.7c4.7-0.5,9.6-0.1,14.1,1.2c4.6,1.3,8.9,3.4,12.9,5.9c8,5.1,14.7,11.9,20.8,19
				c6.1,7.2,11.6,14.8,16.7,22.6c5.2,7.8,10.1,15.8,14.8,23.9c9.5,16.2,18.4,32.6,27.2,49l6.6,12.3c1.1,2.1,2.2,4.1,3.3,6.2
				c1.1,2.1,2,4.4,2.8,6.6c1.6,4.5,2.5,9.3,2.8,14c0.3,4.8,0,9.6-1,14.3c-2,9.4-6.6,18.2-13.5,25c-3.4,3.4-7.5,6.2-11.9,8.1
				c-4.4,1.9-9.3,3-14.2,2.9c-4.9,0-9.7-1.1-14.2-2.9c-4.5-1.8-8.6-4.3-12.4-7.3c-7.5-5.9-13.6-13.3-18.9-21.2l2.6-0.4l-11.4,38.4
				L504,342c8.2,7.6,17.4,14,27.6,18.4c5.1,2.2,10.4,3.8,15.8,4.8c5.4,1,11,1.3,16.5,1c11-0.7,21.8-4.2,31.2-10.1
				c4.7-2.9,9-6.4,12.9-10.4c3.9-4,7.3-8.3,10.2-13c2.9-4.7,5.3-9.7,7.1-15c1.8-5.2,3.1-10.6,3.9-16.1c1.5-11,0.8-22.3-1.8-33.1
				c-1.3-5.4-3-10.7-5.1-15.9c-0.5-1.3-1.1-2.6-1.6-3.8c-0.6-1.3-1.2-2.5-1.8-3.8c-1.2-2.5-2.6-5-3.9-7.5
				c-5.2-10-10.6-19.9-16.1-29.7c-11.1-19.6-23.1-38.7-36.7-56.6c-3.4-4.5-6.9-8.8-10.6-13.1c-3.7-4.3-7.5-8.4-11.5-12.3
				c-7.9-7.9-16.7-15.1-26.4-20.7c-9.6-5.6-20.5-9.3-31.7-9.8c-11.2-0.5-22.3,2.4-32.5,7.1c-10.2,4.7-19.6,11.1-28.5,18
				c-8.9,6.9-17.3,14.4-25.7,22c8.3-7.7,16.6-15.2,25.5-22.3c8.8-7,18.2-13.5,28.4-18.4c10.2-4.9,21.4-8,32.9-7.6
				c11.4,0.3,22.6,4,32.4,9.6c9.9,5.6,18.8,12.9,26.8,20.8c4.1,4,7.9,8.1,11.6,12.4c3.7,4.2,7.3,8.6,10.8,13.1
				c13.8,17.9,26,37,37.2,56.6c5.6,9.8,11.1,19.7,16.3,29.7c1.3,2.5,2.6,5,3.9,7.5c0.6,1.3,1.3,2.6,1.8,3.9c0.6,1.3,1.2,2.6,1.7,3.9
				c2.2,5.3,3.9,10.7,5.2,16.3c2.6,11.1,3.4,22.7,1.9,34.1c-0.8,5.7-2.1,11.3-4,16.7c-1.9,5.4-4.4,10.6-7.4,15.5
				c-3,4.9-6.6,9.4-10.6,13.6c-4,4.1-8.5,7.8-13.4,10.8c-9.7,6.2-21,9.8-32.5,10.6c-5.7,0.3-11.5,0-17.2-1c-5.7-1.1-11.2-2.8-16.5-5
				c-10.6-4.5-20.1-11.2-28.4-18.9l-0.7-0.6l0.3-0.9l11.5-38.4l0.9-2.9l1.7,2.6c5.1,7.7,11,14.9,18.2,20.6c3.6,2.8,7.5,5.2,11.7,6.9
				c4.2,1.7,8.7,2.7,13.1,2.7c4.5,0,9-0.9,13.1-2.7c4.1-1.8,7.9-4.4,11.1-7.6c6.5-6.3,10.9-14.7,12.8-23.6c1-4.4,1.3-9,1-13.6
				c-0.3-4.5-1.1-9.1-2.6-13.4c-0.8-2.1-1.6-4.3-2.6-6.3c-1-2-2.2-4.1-3.2-6.2l-6.6-12.4c-8.8-16.5-17.6-33-26.9-49.2
				c-4.7-8.1-9.5-16.1-14.6-23.9c-5.1-7.8-10.5-15.4-16.5-22.5c-6-7.1-12.6-13.8-20.3-18.8c-3.9-2.5-8-4.6-12.4-5.8
				c-4.4-1.3-9-1.8-13.6-1.3c-4.6,0.4-9.1,1.7-13.3,3.5c-4.3,1.8-8.3,4.2-12.1,6.8c-7.7,5.3-14.5,11.7-20.9,18.4
				C418.1,169.2,407,184.3,396.5,199.7z"></path>
		</g>
		<path class="st2" d="M410.5,289.1h23.8c1.3-39.7-16.2-61.6-42.3-63.1l-40.6-0.2c-9.8,0-19.4,2.5-27.7,7.8
			c-38.9,24.8-26.3,91.2,24.7,95.9l0.2-26.3c-20.6-0.8-26.7-18.4-22.6-33.2c3.3-11.6,13.7-19.6,25.7-20.2
			C401.6,247.4,412.8,251.4,410.5,289.1z"></path>
		<path class="st2" d="M386.7,265l-23.8-0.1c-1.4,39.7,15.9,61.6,42.1,63.2l40.6,0.4c9.8,0.1,19.4-2.4,27.7-7.7
			c39-24.7,26.6-91.1-24.3-96l-0.3,26.3c20.6,0.9,26.7,18.5,22.4,33.2c-3.3,11.5-13.8,19.6-25.8,20.1
			C395.4,306.8,384.3,302.7,386.7,265z"></path>
	</g>
</g>
</svg></svg></g></g><defs><clipPath id="SvgjsClipPath1034"><rect width="1000" height="1000" x="0" y="0" rx="350" ry="350"></rect></clipPath></defs></svg></g></svg>