<?xml version="1.0" encoding="utf-8"?>
<!-- Generator: Adobe Illustrator 22.0.1, SVG Export Plug-In . SVG Version: 6.00 Build 0)  -->
<svg version="1.1" id="Capa_1" xmlns="http://www.w3.org/2000/svg" xmlns:xlink="http://www.w3.org/1999/xlink" x="0px" y="0px"
	 viewBox="0 0 792 199.5" style="enable-background:new 0 0 792 199.5;" xml:space="preserve">
<style type="text/css">
	.st0{fill:#545454;stroke:#545454;strokeWidth:4;strokeMiterlimit:10;}
	.st1{fill:#5EACEB;}
	.st2{fill:#B880E1;stroke:#B880E1;strokeMiterlimit:10;}
</style>
<g id="Capa_2_1_">
	<g>
		<g>
			<path class="st0" d="M244.6,132.1V63.2h9.7l24.4,48.1l24.6-48.1h9.8v68.9h-8.3V77.9l-22.8,44.6h-6.2l-22.8-44.3v54H244.6z"/>
			<path class="st0" d="M355.2,133.3c-4.7,0-8.8-1-12.6-3.2c-3.7-2.1-6.6-5.2-8.7-9.1c-2.1-3.9-3.1-8.5-3.1-13.6
				c0-5.3,1-10,3.2-13.9c2.2-3.9,5.1-7,8.8-9.1c3.7-2.1,7.9-3.2,12.6-3.2c4.7,0,8.8,1,12.5,3.2s6.6,5.2,8.7,9
				c2.2,3.9,3.2,8.5,3.2,13.8c0,5.2-1.1,9.8-3.3,13.8c-2.2,3.9-5.1,7-8.8,9.1C364,132.2,359.8,133.3,355.2,133.3z M355.2,126.2
				c2.8,0,5.5-0.7,7.9-2.1c2.5-1.4,4.4-3.5,5.9-6.4c1.5-2.8,2.2-6.3,2.2-10.4c0-4.2-0.7-7.7-2.2-10.5c-1.5-2.8-3.4-4.9-5.8-6.3
				c-2.4-1.4-5-2.1-7.9-2.1s-5.5,0.7-7.9,2.1c-2.5,1.4-4.4,3.5-5.9,6.3c-1.5,2.8-2.2,6.3-2.2,10.5c0,4.1,0.7,7.6,2.2,10.4
				c1.5,2.8,3.4,4.9,5.8,6.4C349.7,125.5,352.3,126.2,355.2,126.2z"/>
			<path class="st0" d="M392,132.1l16.9-24.9L392,82.4h9.1l13.5,20.3l13.6-20.3h8.9l-16.9,24.9l16.9,24.9h-8.9l-13.6-20.4
				l-13.5,20.4H392z"/>
			<path class="st0" d="M456.6,72c-1.6,0-3-0.5-4.1-1.6c-1.1-1-1.6-2.5-1.6-4.1c0-1.6,0.5-3,1.6-4c1.1-1,2.5-1.5,4.1-1.5
				c1.6,0,2.9,0.5,4,1.5c1.1,1,1.6,2.3,1.6,4c0,1.6-0.5,3-1.6,4.1C459.5,71.4,458.1,72,456.6,72z M452.4,132.1V82.4h8.3v49.6H452.4z
				"/>
			<path class="st0" d="M502.7,133.3c-4.7,0-8.8-1-12.4-3.2c-3.6-2.2-6.4-5.2-8.5-9.1c-2-3.9-3.1-8.5-3.1-13.6c0-5.2,1-9.8,3-13.7
				c2-3.9,4.9-6.9,8.5-9.1s7.9-3.2,12.6-3.2c4.9,0,9,1,12.4,3.2c3.4,2.2,6,5,7.8,8.5c1.8,3.5,2.7,7.3,2.7,11.6c0,0.7,0,1.3,0,2.1
				c0,0.7,0,1.6-0.1,2.5h-40.7v-6.4h32.7c-0.2-4.6-1.7-8.1-4.5-10.6c-2.8-2.5-6.3-3.8-10.6-3.8c-2.8,0-5.5,0.7-7.9,1.9
				c-2.4,1.3-4.3,3.1-5.8,5.6c-1.4,2.5-2.2,5.5-2.2,9.2v2.8c0,4,0.7,7.5,2.2,10.3c1.5,2.8,3.4,4.8,5.8,6.2c2.4,1.3,5,2.1,7.8,2.1
				c3.5,0,6.4-0.7,8.7-2.3c2.2-1.6,3.9-3.6,4.9-6.3h8.2c-0.8,2.9-2.2,5.6-4.1,8c-1.9,2.4-4.4,4.2-7.3,5.5
				C510,132.6,506.6,133.3,502.7,133.3z"/>
			<path class="st0" d="M543.1,132.1V63.2h8.3v62.4h32.3v6.6L543.1,132.1L543.1,132.1z"/>
			<path class="st0" d="M605.2,72c-1.6,0-3-0.5-4.1-1.6c-1.1-1-1.6-2.5-1.6-4.1c0-1.6,0.5-3,1.6-4c1.1-1,2.5-1.5,4.1-1.5
				c1.6,0,2.9,0.5,4,1.5c1.1,1,1.6,2.3,1.6,4c0,1.6-0.5,3-1.6,4.1C608.1,71.4,606.8,72,605.2,72z M601,132.1V82.4h8.3v49.6H601z"/>
			<path class="st0" d="M629.5,132.1V82.4h7.5l0.4,8.7c1.6-3.1,3.8-5.5,6.7-7.3c2.9-1.7,6.3-2.6,10-2.6c3.9,0,7.3,0.7,10.1,2.3
				c2.8,1.6,5,3.9,6.6,7c1.6,3.1,2.4,7.1,2.4,11.9v29.7h-8.3v-28.8c0-5-1.1-8.8-3.3-11.2c-2.2-2.5-5.3-3.7-9.4-3.7
				c-2.8,0-5.2,0.7-7.4,2c-2.2,1.3-3.9,3.3-5.2,5.8c-1.3,2.5-1.9,5.7-1.9,9.4v26.4H629.5z"/>
			<path class="st0" d="M691.8,132.1V61.2h8.3v70.9H691.8z M722.5,132.1l-23.7-27.2l21.6-22.5h10.2l-24.8,25.4l0.1-5.9l27.2,30.2
				H722.5z"/>
		</g>
	</g>
</g>
<g id="Capa_1_1_">
	<g>
		<g>
			<path class="st1" d="M133,60.1c-24.5-22.4-47-37.9-86.3,38.7c-16.9,33.6,17.5,63.5,44.7,38.2L87,122.3
				c-11.6,17.6-25.5,13-30.3,2.3c-2.6-5.6-2.2-12.2,0.7-17.6c27.3-51.2,40.6-76.6,75.4-25"/>
			<path class="st1" d="M133,60.1c-3.2-2.9-6.4-5.8-9.9-8.4c-3.4-2.6-7-5.1-10.9-6.9c-3.9-1.8-8.2-3-12.5-2.8
				c-4.3,0.2-8.5,1.5-12.2,3.7c-3.8,2.1-7.1,4.9-10.2,7.9c-0.8,0.7-1.5,1.5-2.3,2.3c-0.7,0.8-1.5,1.6-2.1,2.4
				c-1.4,1.6-2.8,3.3-4.1,5c-5.3,6.9-9.9,14.2-14.2,21.7c-2.1,3.8-4.2,7.6-6.2,11.4c-0.5,1-1,1.9-1.5,2.9c-0.2,0.5-0.5,1-0.7,1.5
				l-0.7,1.5c-0.8,2-1.5,4-2,6.1c-1,4.1-1.3,8.5-0.7,12.7c0.6,4.2,2,8.3,4.2,12c1.1,1.8,2.4,3.5,3.9,5c1.5,1.5,3.1,2.9,4.9,4
				c3.6,2.3,7.8,3.6,12,3.9c2.1,0.1,4.3,0,6.3-0.4c2.1-0.4,4.1-1,6.1-1.8c3.9-1.6,7.5-4.1,10.6-7.1l-0.2,0.6l-4.4-14.8l1,0.2
				c-2,3-4.3,5.9-7.3,8.1c-1.5,1.1-3,2.1-4.8,2.8c-1.7,0.7-3.6,1.1-5.4,1.1c-1.9,0-3.7-0.4-5.4-1.2s-3.3-1.8-4.6-3.1
				c-2.6-2.6-4.4-6-5.1-9.6c-0.4-1.8-0.5-3.6-0.4-5.5c0.1-1.8,0.5-3.6,1.1-5.4c0.2-0.4,0.3-0.9,0.5-1.3l0.3-0.7l0.3-0.6
				c0.4-0.8,0.8-1.6,1.3-2.4l2.6-4.8c3.4-6.3,6.8-12.6,10.5-18.8c1.8-3.1,3.7-6.2,5.7-9.2c2-3,4.1-5.9,6.5-8.7
				c2.3-2.7,4.9-5.3,8.1-7.3c1.5-1,3.2-1.8,5-2.2c1.8-0.5,3.6-0.7,5.4-0.4c1.8,0.2,3.6,0.7,5.3,1.4c1.6,0.7,3.2,1.6,4.7,2.7
				c3,2.1,5.6,4.6,8,7.2c4.9,5.3,9.1,11.1,13.1,17.1c-4.1-5.9-8.3-11.7-13.3-16.9c-2.5-2.6-5.1-5-8.1-7.1c-1.5-1-3-1.9-4.6-2.6
				c-1.6-0.7-3.4-1.2-5.1-1.3c-1.8-0.2-3.5,0-5.3,0.5c-1.7,0.5-3.3,1.3-4.8,2.2c-3,1.9-5.5,4.5-7.9,7.2c-2.3,2.7-4.4,5.6-6.4,8.6
				c-2,3-3.8,6.1-5.6,9.2c-3.6,6.2-7,12.5-10.4,18.9l-2.5,4.8c-0.4,0.8-0.8,1.6-1.2,2.4l-0.3,0.6l-0.3,0.6c-0.2,0.4-0.3,0.8-0.5,1.2
				c-0.6,1.6-0.9,3.4-1,5.1s0,3.5,0.3,5.2c0.7,3.4,2.4,6.6,4.9,9.1c1.2,1.2,2.7,2.2,4.3,2.9s3.3,1.1,5,1c1.7,0,3.5-0.4,5.1-1
				c1.6-0.7,3.1-1.6,4.5-2.6c2.8-2.2,5-4.9,7-7.9l0.7-1l0.3,1.1l4.4,14.7l0.1,0.3l-0.3,0.3c-3.2,3-6.9,5.6-10.9,7.3
				c-2,0.8-4.1,1.5-6.3,1.9c-2.2,0.4-4.4,0.5-6.6,0.4c-4.4-0.3-8.7-1.7-12.5-4.1c-1.9-1.2-3.6-2.6-5.1-4.1c-1.5-1.6-2.9-3.3-4-5.2
				c-2.3-3.8-3.8-8-4.3-12.4s-0.3-8.8,0.8-13.1c0.5-2.1,1.2-4.2,2-6.3l0.7-1.5c0.2-0.5,0.5-1,0.7-1.5c0.5-1,1-1.9,1.5-2.9
				c2-3.8,4.1-7.6,6.3-11.4c4.3-7.5,9-14.8,14.3-21.7c1.3-1.7,2.7-3.4,4.1-5c0.7-0.8,1.5-1.6,2.2-2.4c0.8-0.8,1.5-1.6,2.3-2.3
				c3.1-3,6.5-5.8,10.4-7.9c1.9-1.1,3.9-2,6-2.6c2.1-0.6,4.3-1,6.4-1c4.4-0.2,8.7,1.1,12.6,2.9c3.9,1.9,7.5,4.4,10.9,7.1
				C126.6,54.3,129.8,57.2,133,60.1z"/>
		</g>
		<g>
			<path class="st1" d="M132.6,82c34.7-51.6,47.7-26.1,75,25.1c2.9,5.4,3.2,12,0.7,17.6c-4.9,10.7-18.8,15.3-30.3-2.3l-4.4,14.7
				c27.2,25.4,61.6-4.5,44.7-38.2c-39.4-76.6-61.5-61.2-86-38.8"/>
			<path class="st1" d="M132.6,82c4-5.9,8.2-11.8,13-17.1c2.5-2.6,5.1-5.1,8-7.2c1.5-1,3-2,4.7-2.7c1.6-0.7,3.4-1.3,5.2-1.4
				c1.8-0.2,3.7,0,5.4,0.5c1.8,0.5,3.4,1.3,4.9,2.3c3.1,2,5.6,4.6,8,7.3c2.3,2.8,4.5,5.7,6.4,8.7c2,3,3.9,6.1,5.7,9.2
				c3.6,6.2,7.1,12.5,10.4,18.8l2.5,4.7c0.4,0.8,0.8,1.6,1.3,2.4c0.4,0.8,0.8,1.7,1.1,2.5c0.6,1.7,1,3.6,1.1,5.4
				c0.1,1.8,0,3.7-0.4,5.5c-0.8,3.6-2.5,7-5.2,9.6c-1.3,1.3-2.9,2.4-4.6,3.1c-1.7,0.7-3.6,1.2-5.4,1.1c-1.9,0-3.7-0.4-5.4-1.1
				c-1.7-0.7-3.3-1.6-4.8-2.8c-2.9-2.3-5.2-5.1-7.3-8.1l1-0.2l-4.4,14.7l-0.1-0.5c3.1,2.9,6.7,5.4,10.6,7.1c2,0.8,4,1.5,6.1,1.8
				c2.1,0.4,4.2,0.5,6.3,0.4c4.2-0.3,8.4-1.6,12-3.9c1.8-1.1,3.5-2.5,4.9-4c1.5-1.5,2.8-3.2,3.9-5c1.1-1.8,2-3.7,2.7-5.8
				c0.7-2,1.2-4.1,1.5-6.2c0.6-4.2,0.3-8.6-0.7-12.7c-0.5-2.1-1.2-4.1-2-6.1c-0.2-0.5-0.4-1-0.6-1.5c-0.2-0.5-0.5-1-0.7-1.5
				c-0.5-1-1-1.9-1.5-2.9c-2-3.8-4.1-7.6-6.2-11.4c-4.3-7.5-8.9-14.8-14.1-21.7c-1.3-1.7-2.6-3.4-4.1-5c-1.4-1.6-2.9-3.2-4.4-4.7
				c-3-3-6.4-5.8-10.1-7.9c-3.7-2.1-7.9-3.6-12.2-3.8c-4.3-0.2-8.6,0.9-12.5,2.7c-3.9,1.8-7.5,4.3-10.9,6.9
				c-3.4,2.6-6.6,5.5-9.9,8.4c3.2-3,6.4-5.8,9.8-8.6c3.4-2.7,7-5.2,10.9-7.1c3.9-1.9,8.2-3.1,12.6-2.9c4.4,0.1,8.7,1.5,12.4,3.7
				c3.8,2.1,7.2,4.9,10.3,8c1.6,1.5,3,3.1,4.5,4.8c1.4,1.6,2.8,3.3,4.1,5c5.3,6.9,10,14.2,14.3,21.7c2.1,3.8,4.3,7.6,6.3,11.4
				c0.5,1,1,1.9,1.5,2.9c0.2,0.5,0.5,1,0.7,1.5c0.2,0.5,0.5,1,0.7,1.5c0.8,2,1.5,4.1,2,6.3c1,4.3,1.3,8.7,0.7,13.1
				c-0.3,2.2-0.8,4.3-1.5,6.4c-0.7,2.1-1.7,4.1-2.8,5.9c-1.2,1.9-2.5,3.6-4.1,5.2c-1.5,1.6-3.3,3-5.1,4.1c-3.7,2.4-8.1,3.8-12.5,4.1
				c-2.2,0.1-4.4,0-6.6-0.4c-2.2-0.4-4.3-1.1-6.3-1.9c-4.1-1.7-7.7-4.3-10.9-7.3l-0.3-0.2l0.1-0.3l4.4-14.7l0.3-1.1l0.7,1
				c2,3,4.2,5.7,7,7.9c1.4,1.1,2.9,2,4.5,2.6c1.6,0.7,3.3,1,5,1c1.7,0,3.5-0.3,5-1c1.6-0.7,3-1.7,4.3-2.9c2.5-2.4,4.2-5.6,4.9-9.1
				c0.4-1.7,0.5-3.5,0.4-5.2c-0.1-1.7-0.4-3.5-1-5.1c-0.3-0.8-0.6-1.6-1-2.4s-0.8-1.6-1.2-2.4l-2.5-4.8c-3.4-6.3-6.8-12.7-10.3-18.9
				c-1.8-3.1-3.6-6.2-5.6-9.2s-4-5.9-6.3-8.6c-2.3-2.7-4.8-5.3-7.8-7.2c-1.5-1-3.1-1.8-4.8-2.2c-1.7-0.5-3.5-0.7-5.2-0.5
				c-1.8,0.2-3.5,0.7-5.1,1.3c-1.6,0.7-3.2,1.6-4.6,2.6c-3,2-5.6,4.5-8,7.1C140.9,70.3,136.6,76.1,132.6,82z"/>
		</g>
		<path class="st2" d="M138,116.3h9.1c0.5-15.2-6.2-23.6-16.2-24.2l-15.6-0.1c-3.8,0-7.4,1-10.6,3c-14.9,9.5-10.1,35,9.5,36.8
			l0.1-10.1c-7.9-0.3-10.2-7.1-8.7-12.7c1.3-4.5,5.3-7.5,9.9-7.8C134.6,100.3,138.9,101.9,138,116.3z"/>
		<path class="st2" d="M128.9,107.1l-9.1,0c-0.5,15.2,6.1,23.6,16.2,24.2l15.6,0.2c3.8,0,7.4-0.9,10.6-3c15-9.5,10.2-35-9.3-36.8
			l-0.1,10.1c7.9,0.3,10.2,7.1,8.6,12.7c-1.3,4.4-5.3,7.5-9.9,7.7C132.2,123.1,127.9,121.6,128.9,107.1z"/>
	</g>
</g>
</svg>
